<svg viewBox="0 0 431.84 431.85">
	<title>help-web-button</title>
	<path class="cls-1" d="M215.94,0C96.72,0,0,96.59,0,215.81s96.71,216,215.92,216,215.92-96.7,215.92-216S335.21,0,215.94,0Zm15.38,336a25.37,25.37,0,0,1-17.41,6.71,26.3,26.3,0,0,1-17.82-6.62q-7.62-6.62-7.63-18.5a23.85,23.85,0,0,1,7.37-17.75,24.91,24.91,0,0,1,18.08-7.19,24.58,24.58,0,0,1,25,24.94Q238.86,329.27,231.32,336Zm62.54-155a76.28,76.28,0,0,1-13.74,18.5q-7.94,7.8-28.55,26.2a119.58,119.58,0,0,0-9.12,9.12,37.5,37.5,0,0,0-5.1,7.2,34.24,34.24,0,0,0-2.6,6.54q-.92,3.25-2.77,11.47-3.16,17.42-19.91,17.41a20.37,20.37,0,0,1-14.66-5.69q-5.94-5.7-5.93-16.91,0-14.06,4.35-24.36a61.49,61.49,0,0,1,11.55-18.08,263.85,263.85,0,0,1,19.42-18.51q10.72-9.37,15.49-14.14a48.18,48.18,0,0,0,8-10.63,25.58,25.58,0,0,0,3.26-12.72,29.53,29.53,0,0,0-10-22.6q-10-9.21-25.7-9.21-18.42,0-27.13,9.29t-14.73,27.37q-5.7,18.93-21.59,18.92a21.25,21.25,0,0,1-15.83-6.61q-6.44-6.6-6.44-14.31,0-15.9,10.21-32.23t29.81-27q19.58-10.73,45.7-10.73,24.27,0,42.85,9t28.72,24.36A59.77,59.77,0,0,1,299.62,156Q299.65,170.21,293.86,180.93Z" transform="translate(-0.01)"/>
</svg>