<svg xmlns:dc="http://purl.org/dc/elements/1.1/" xmlns:cc="http://creativecommons.org/ns#" xmlns:rdf="http://www.w3.org/1999/02/22-rdf-syntax-ns#" xmlns:svg="http://www.w3.org/2000/svg" xmlns="http://www.w3.org/2000/svg" xmlns:sodipodi="http://sodipodi.sourceforge.net/DTD/sodipodi-0.dtd" xmlns:inkscape="http://www.inkscape.org/namespaces/inkscape" version="1.1" x="0px" y="0px" viewBox="0 0 100 125"><g transform="translate(0,-952.36218)"><path d="m 16,966.36215 c -4.3974,0 -7.9999999,3.6026 -7.9999999,8 l 0,57.00005 c 0,3.8434 3.1565999,7 6.9999999,7 l 70,0 c 3.8434,0 7,-3.1566 7,-7 l 0,-46.00005 c 0,-3.8434 -3.1566,-7 -7,-7 l -5,0 0,-10 c -1e-4,-1.0472 -0.9528,-1.9999 -2,-2 z m 0,4 60,0 0,8 -60,0 c -2.2506,0 -4,-1.7494 -4,-4 0,-2.2506 1.7494,-4 4,-4 z m -4,10.9062 c 1.1789,0.6866 2.5456,1.0938 4,1.0938 22.5241,-0.02 49.6406,0 69,0 1.6966,0 3,1.3034 3,3 l 0,12 -29,0 c -2.7354,0 -5,2.2646 -5,4.99995 l 0,12.0001 c 0,2.7354 2.2646,5 5,5 l 29,0 0,12 c 0,1.6966 -1.3034,3 -3,3 l -70,0 c -1.6966,0 -3,-1.3034 -3,-3 z m 47,20.09375 29,0 0,14.0001 -29,0 c -0.5886,0 -1,-0.4114 -1,-1 l 0,-12.0001 c 0,-0.5886 0.4114,-1 1,-1 z m 10,1.9688 c -2.7377,0 -5,2.2622 -5,5 0,2.7377 2.2623,5 5,5 2.7377,0 5,-2.2623 5,-5 0,-2.7378 -2.2623,-5 -5,-5 z m 0,4 c 0.576,0 1,0.424 1,1 0,0.5759 -0.424,1 -1,1 -0.576,0 -1,-0.4241 -1,-1 0,-0.576 0.424,-1 1,-1 z" style="text-indent:0;text-transform:none;direction:ltr;block-progression:tb;baseline-shift:baseline;color:#000000;enable-background:accumulate;" fill="#000000" fill-opacity="1" fill-rule="nonzero" stroke="none" marker="none" visibility="visible" display="inline" overflow="visible"/></g><text x="0" y="115" fill="#000000" font-size="5px" font-weight="bold" font-family="'Helvetica Neue', Helvetica, Arial-Unicode, Arial, Sans-serif">Created by Rockicon</text><text x="0" y="120" fill="#000000" font-size="5px" font-weight="bold" font-family="'Helvetica Neue', Helvetica, Arial-Unicode, Arial, Sans-serif">from the Noun Project</text></svg>