<svg xmlns="http://www.w3.org/2000/svg" xmlns:xlink="http://www.w3.org/1999/xlink" version="1.1" x="0px" y="0px" viewBox="0 0 100 125" style="enable-background:new 0 0 100 100;" xml:space="preserve"><style type="text/css">
	.st0{fill:none;}
</style><g><path class="st0" d="M50,60c5.5,0,10-4.5,10-10s-4.5-10-10-10s-10,4.5-10,10S44.5,60,50,60z"/><path d="M15.4,70l5,8.7l10.2-5.9c2.8,2.4,6,4.2,9.5,5.5V90h20V78.3c3.5-1.2,6.7-3.1,9.5-5.5l10.2,5.9l5-8.7l5-8.7l-10.2-5.9   c0.3-1.8,0.5-3.6,0.5-5.5s-0.2-3.7-0.5-5.5l10.2-5.9l-5-8.7l-5-8.7l-10.2,5.9c-2.8-2.4-6-4.2-9.5-5.5V10H40v11.8   c-3.5,1.2-6.7,3.1-9.5,5.5l-10.2-5.9l-5,8.7l-5,8.7l10.2,5.9C20.2,46.3,20,48.1,20,50s0.2,3.7,0.5,5.5l-10.2,5.9L15.4,70z M50,40   c5.5,0,10,4.5,10,10s-4.5,10-10,10s-10-4.5-10-10S44.5,40,50,40z"/></g><text x="0" y="115" fill="#000000" font-size="5px" font-weight="bold" font-family="'Helvetica Neue', Helvetica, Arial-Unicode, Arial, Sans-serif">Created by Arthur Shlain</text><text x="0" y="120" fill="#000000" font-size="5px" font-weight="bold" font-family="'Helvetica Neue', Helvetica, Arial-Unicode, Arial, Sans-serif">from the Noun Project</text></svg>