<svg xmlns="http://www.w3.org/2000/svg" xmlns:xlink="http://www.w3.org/1999/xlink" xml:space="preserve" version="1.1" style="shape-rendering:geometricPrecision;text-rendering:geometricPrecision;image-rendering:optimizeQuality;" viewBox="0 0 8467 10583.75" x="0px" y="0px" fill-rule="evenodd" clip-rule="evenodd"><defs><style type="text/css">
   
    .fil0 {fill:black}
   
  </style></defs><g><path class="fil0" d="M8259 4240l-312 373c-25,30 -66,50 -106,55l-15 0c-40,0 -76,-10 -106,-35l-3487 -2907 -3486 2907c-35,25 -76,40 -121,35 -40,-5 -81,-25 -106,-56l-312 -372c-56,-66 -46,-172 20,-227l3622 -3018c212,-176 555,-176 766,0l1230 1028 0 -983c0,-90 70,-161 161,-161l967 0c91,0 161,71 161,161l0 2056 1104 917c65,55 75,161 20,227z"/><path class="fil0" d="M7147 4863l0 2418c0,177 -146,323 -323,323l-1934 0 0 -1935 -1290 0 0 1935 -1935 0c-176,0 -322,-146 -322,-323l0 -2418c0,-10 5,-21 5,-31l2897 -2388 2897 2388c5,10 5,21 5,31l0 0z"/></g><text x="0" y="8482" fill="#000000" font-size="5px" font-weight="bold" font-family="'Helvetica Neue', Helvetica, Arial-Unicode, Arial, Sans-serif">Created by guntur cahya</text><text x="0" y="8487" fill="#000000" font-size="5px" font-weight="bold" font-family="'Helvetica Neue', Helvetica, Arial-Unicode, Arial, Sans-serif">from the Noun Project</text></svg>