<svg xmlns="http://www.w3.org/2000/svg" xmlns:xlink="http://www.w3.org/1999/xlink" version="1.1" x="0px" y="0px" viewBox="0 0 512 640" style="enable-background:new 0 0 512 512;" xml:space="preserve"><g><path d="M256,42.5c-9.4,0-17,7.6-17,17v352.1l-72.4-71.9c-6.7-6.6-17.4-6.6-24,0.1c-6.6,6.7-6.6,17.4,0.1,24   L244,464.5c3.3,3.3,7.6,4.9,12,4.9s8.7-1.6,12-4.9l101.4-100.7c6.7-6.6,6.7-17.4,0.1-24c-6.6-6.7-17.4-6.7-24-0.1L273,411.6V59.5   C273,50.2,265.4,42.5,256,42.5z"/></g><text x="0" y="527" fill="#000000" font-size="5px" font-weight="bold" font-family="'Helvetica Neue', Helvetica, Arial-Unicode, Arial, Sans-serif">Created by Thomas</text><text x="0" y="532" fill="#000000" font-size="5px" font-weight="bold" font-family="'Helvetica Neue', Helvetica, Arial-Unicode, Arial, Sans-serif">from the Noun Project</text></svg>